<?xml version="1.0" standalone="no"?>
<!DOCTYPE svg PUBLIC "-//W3C//DTD SVG 20010904//EN"
 "http://www.w3.org/TR/2001/REC-SVG-20010904/DTD/svg10.dtd">
<svg version="1.0" xmlns="http://www.w3.org/2000/svg"
 width="695.000000pt" height="695.000000pt" viewBox="0 0 695.000000 695.000000"
 preserveAspectRatio="xMidYMid meet">
<metadata>
Created by potrace 1.11, written by Peter Selinger 2001-2013
</metadata>
<g transform="translate(0.000000,695.000000) scale(0.100000,-0.100000)"
fill="#000000" stroke="none">
<path d="M754 6533 l-269 -268 0 -2792 -1 -2792 263 -263 262 -262 1953 -1
c1074 -1 1959 1 1966 3 9 3 12 120 12 541 l0 536 -1690 -1 -1689 0 0 2780 0
2781 -269 3 -269 2 -269 -267z"/>
<path d="M1995 6266 c0 -294 2 -537 5 -540 3 -3 765 -6 1692 -7 l1687 -1 1
-1812 c1 -996 2 -2247 3 -2781 l2 -969 265 -1 265 -1 273 270 272 271 0 2784
0 2784 -268 268 -267 269 -1965 0 -1966 0 1 -534z"/>
</g>
</svg>
