<?xml version="1.0" encoding="UTF-8"?>
<!DOCTYPE svg PUBLIC "-//W3C//DTD SVG 1.1//EN" "http://www.w3.org/Graphics/SVG/1.1/DTD/svg11.dtd">
<svg version="1.1" xmlns="http://www.w3.org/2000/svg" xmlns:xlink="http://www.w3.org/1999/xlink" x="0" y="0" width="500" height="500" viewBox="0, 0, 500, 500">
  <g id="Layer_1">
    <path d="M53.794,470.194 L34.8,451.188 L34.8,250.388 L34.8,49.588 L54.206,30.194 L73.612,10.8 L93.006,10.8 L112.4,10.8 L112.4,211.2 L112.4,411.6 L234,411.6 L355.6,411.6 L355.6,450.4 L355.6,489.2 L214.194,489.2 L72.787,489.2 L53.794,470.194 z M387.402,289 L387.2,88.8 L265.4,88.597 L143.6,88.395 L143.6,49.597 L143.6,10.8 L285.006,10.8 L426.412,10.8 L445.806,30.206 L465.2,49.612 L465.2,250.012 L465.2,450.412 L445.794,469.806 L426.388,489.2 L406.996,489.2 L387.603,489.2 L387.402,289 z" fill="#162212" id="path3401"/>
  </g>
</svg>
